{
    "asset" : {
        "generator" : "Khronos glTF Blender I/O v1.8.19",
        "version" : "2.0"
    },
    "scene" : 0,
    "scenes" : [
        {
            "name" : "Scene",
            "nodes" : [
                0,
                1,
                2,
                3,
                4,
                5,
                6,
                7
            ]
        }
    ],
    "nodes" : [
        {
            "mesh" : 0,
            "name" : "\u5186",
            "rotation" : [
                0,
                0,
                -0.7071067690849304,
                0.7071068286895752
            ],
            "scale" : [
                1,
                1,
                2.4883992671966553
            ],
            "translation" : [
                0,
                0,
                -0.12956470251083374
            ]
        },
        {
            "mesh" : 1,
            "name" : "\u5186.001",
            "rotation" : [
                -0.7071068286895752,
                0.7071067690849304,
                0,
                -1.1520231879558196e-07
            ],
            "scale" : [
                1,
                1,
                2.4883992671966553
            ],
            "translation" : [
                -0.6186234354972839,
                0,
                -0.12956470251083374
            ]
        },
        {
            "mesh" : 2,
            "name" : "\u5186.002",
            "rotation" : [
                0,
                0,
                -0.7071067690849304,
                0.7071068286895752
            ],
            "scale" : [
                0.6253154873847961,
                0.6253154873847961,
                0.6253154873847961
            ],
            "translation" : [
                0,
                2.397413969039917,
                0
            ]
        },
        {
            "mesh" : 3,
            "name" : "\u5e73\u9762",
            "rotation" : [
                0,
                0,
                -0.7071067690849304,
                0.7071068286895752
            ],
            "scale" : [
                0.35904955863952637,
                0.7897558212280273,
                1.112634301185608
            ],
            "translation" : [
                0,
                3.8785653114318848,
                4.069281578063965
            ]
        },
        {
            "mesh" : 4,
            "name" : "\u5e73\u9762.001",
            "rotation" : [
                0,
                0,
                -0.7071067690849304,
                0.7071068286895752
            ],
            "scale" : [
                0.5513135194778442,
                1,
                1.4088332653045654
            ],
            "translation" : [
                0,
                2.7698729038238525,
                -2.1708483695983887
            ]
        },
        {
            "mesh" : 5,
            "name" : "\u5e73\u9762.002",
            "rotation" : [
                0,
                0,
                -0.7071067690849304,
                0.7071068286895752
            ],
            "scale" : [
                0.4134482145309448,
                0.9094096422195435,
                1.2812066078186035
            ],
            "translation" : [
                0,
                4.354880332946777,
                2.113654851913452
            ]
        },
        {
            "mesh" : 6,
            "name" : "\u5e73\u9762.003",
            "rotation" : [
                0,
                0,
                -0.7071067690849304,
                0.7071068286895752
            ],
            "scale" : [
                -0.3487057685852051,
                0.7238867282867432,
                1.0198357105255127
            ],
            "translation" : [
                0,
                2.864380121231079,
                2.733308792114258
            ]
        },
        {
            "mesh" : 7,
            "name" : "\u5e73\u9762.004",
            "rotation" : [
                0,
                0,
                -0.7071067690849304,
                0.7071068286895752
            ],
            "scale" : [
                -0.3487057685852051,
                0.7238867282867432,
                1.0198357105255127
            ],
            "translation" : [
                0,
                4.526127338409424,
                -4.267874240875244
            ]
        }
    ],
    "meshes" : [
        {
            "name" : "\u5186",
            "primitives" : [
                {
                    "attributes" : {
                        "POSITION" : 0,
                        "NORMAL" : 1,
                        "TEXCOORD_0" : 2
                    },
                    "indices" : 3
                }
            ]
        },
        {
            "name" : "\u5186.001",
            "primitives" : [
                {
                    "attributes" : {
                        "POSITION" : 4,
                        "NORMAL" : 5,
                        "TEXCOORD_0" : 6
                    },
                    "indices" : 7
                }
            ]
        },
        {
            "name" : "\u5186.002",
            "primitives" : [
                {
                    "attributes" : {
                        "POSITION" : 8,
                        "NORMAL" : 9,
                        "TEXCOORD_0" : 10
                    },
                    "indices" : 11
                }
            ]
        },
        {
            "name" : "\u5e73\u9762",
            "primitives" : [
                {
                    "attributes" : {
                        "POSITION" : 12,
                        "NORMAL" : 13,
                        "TEXCOORD_0" : 14
                    },
                    "indices" : 15
                }
            ]
        },
        {
            "name" : "\u5e73\u9762.001",
            "primitives" : [
                {
                    "attributes" : {
                        "POSITION" : 16,
                        "NORMAL" : 17,
                        "TEXCOORD_0" : 18
                    },
                    "indices" : 15
                }
            ]
        },
        {
            "name" : "\u5e73\u9762.002",
            "primitives" : [
                {
                    "attributes" : {
                        "POSITION" : 19,
                        "NORMAL" : 20,
                        "TEXCOORD_0" : 21
                    },
                    "indices" : 15
                }
            ]
        },
        {
            "name" : "\u5e73\u9762.003",
            "primitives" : [
                {
                    "attributes" : {
                        "POSITION" : 22,
                        "NORMAL" : 23,
                        "TEXCOORD_0" : 24
                    },
                    "indices" : 15
                }
            ]
        },
        {
            "name" : "\u5e73\u9762.004",
            "primitives" : [
                {
                    "attributes" : {
                        "POSITION" : 25,
                        "NORMAL" : 26,
                        "TEXCOORD_0" : 27
                    },
                    "indices" : 15
                }
            ]
        }
    ],
    "accessors" : [
        {
            "bufferView" : 0,
            "componentType" : 5126,
            "count" : 17,
            "max" : [
                8.742277657347586e-08,
                1.1822975487518761e-08,
                1.6236385107040405
            ],
            "min" : [
                -1.156599998474121,
                -7.530091750140855e-08,
                -2.355746030807495
            ],
            "type" : "VEC3"
        },
        {
            "bufferView" : 1,
            "componentType" : 5126,
            "count" : 17,
            "type" : "VEC3"
        },
        {
            "bufferView" : 2,
            "componentType" : 5126,
            "count" : 17,
            "type" : "VEC2"
        },
        {
            "bufferView" : 3,
            "componentType" : 5123,
            "count" : 33,
            "type" : "SCALAR"
        },
        {
            "bufferView" : 4,
            "componentType" : 5126,
            "count" : 17,
            "max" : [
                8.742277657347586e-08,
                1.7020944653722836e-09,
                1.5285580158233643
            ],
            "min" : [
                -1.4707642793655396,
                -7.530091750140855e-08,
                -2.355746030807495
            ],
            "type" : "VEC3"
        },
        {
            "bufferView" : 5,
            "componentType" : 5126,
            "count" : 17,
            "type" : "VEC3"
        },
        {
            "bufferView" : 6,
            "componentType" : 5126,
            "count" : 17,
            "type" : "VEC2"
        },
        {
            "bufferView" : 7,
            "componentType" : 5123,
            "count" : 33,
            "type" : "SCALAR"
        },
        {
            "bufferView" : 8,
            "componentType" : 5126,
            "count" : 32,
            "max" : [
                -0.505303144454956,
                1.1364723206952476e-07,
                1
            ],
            "min" : [
                -2.505303144454956,
                1.1364723206952476e-07,
                -1
            ],
            "type" : "VEC3"
        },
        {
            "bufferView" : 9,
            "componentType" : 5126,
            "count" : 32,
            "type" : "VEC3"
        },
        {
            "bufferView" : 10,
            "componentType" : 5126,
            "count" : 32,
            "type" : "VEC2"
        },
        {
            "bufferView" : 11,
            "componentType" : 5123,
            "count" : 90,
            "type" : "SCALAR"
        },
        {
            "bufferView" : 12,
            "componentType" : 5126,
            "count" : 4,
            "max" : [
                1,
                0,
                1
            ],
            "min" : [
                -1,
                0,
                -1
            ],
            "type" : "VEC3"
        },
        {
            "bufferView" : 13,
            "componentType" : 5126,
            "count" : 4,
            "type" : "VEC3"
        },
        {
            "bufferView" : 14,
            "componentType" : 5126,
            "count" : 4,
            "type" : "VEC2"
        },
        {
            "bufferView" : 15,
            "componentType" : 5123,
            "count" : 6,
            "type" : "SCALAR"
        },
        {
            "bufferView" : 16,
            "componentType" : 5126,
            "count" : 4,
            "max" : [
                1,
                0,
                1
            ],
            "min" : [
                -1,
                0,
                -1
            ],
            "type" : "VEC3"
        },
        {
            "bufferView" : 17,
            "componentType" : 5126,
            "count" : 4,
            "type" : "VEC3"
        },
        {
            "bufferView" : 18,
            "componentType" : 5126,
            "count" : 4,
            "type" : "VEC2"
        },
        {
            "bufferView" : 19,
            "componentType" : 5126,
            "count" : 4,
            "max" : [
                1,
                0,
                1
            ],
            "min" : [
                -1,
                0,
                -1
            ],
            "type" : "VEC3"
        },
        {
            "bufferView" : 20,
            "componentType" : 5126,
            "count" : 4,
            "type" : "VEC3"
        },
        {
            "bufferView" : 21,
            "componentType" : 5126,
            "count" : 4,
            "type" : "VEC2"
        },
        {
            "bufferView" : 22,
            "componentType" : 5126,
            "count" : 4,
            "max" : [
                1,
                0,
                1
            ],
            "min" : [
                -1,
                0,
                -1
            ],
            "type" : "VEC3"
        },
        {
            "bufferView" : 23,
            "componentType" : 5126,
            "count" : 4,
            "type" : "VEC3"
        },
        {
            "bufferView" : 24,
            "componentType" : 5126,
            "count" : 4,
            "type" : "VEC2"
        },
        {
            "bufferView" : 25,
            "componentType" : 5126,
            "count" : 4,
            "max" : [
                1,
                0,
                1
            ],
            "min" : [
                -1,
                0,
                -1
            ],
            "type" : "VEC3"
        },
        {
            "bufferView" : 26,
            "componentType" : 5126,
            "count" : 4,
            "type" : "VEC3"
        },
        {
            "bufferView" : 27,
            "componentType" : 5126,
            "count" : 4,
            "type" : "VEC2"
        }
    ],
    "bufferViews" : [
        {
            "buffer" : 0,
            "byteLength" : 204,
            "byteOffset" : 0
        },
        {
            "buffer" : 0,
            "byteLength" : 204,
            "byteOffset" : 204
        },
        {
            "buffer" : 0,
            "byteLength" : 136,
            "byteOffset" : 408
        },
        {
            "buffer" : 0,
            "byteLength" : 66,
            "byteOffset" : 544
        },
        {
            "buffer" : 0,
            "byteLength" : 204,
            "byteOffset" : 612
        },
        {
            "buffer" : 0,
            "byteLength" : 204,
            "byteOffset" : 816
        },
        {
            "buffer" : 0,
            "byteLength" : 136,
            "byteOffset" : 1020
        },
        {
            "buffer" : 0,
            "byteLength" : 66,
            "byteOffset" : 1156
        },
        {
            "buffer" : 0,
            "byteLength" : 384,
            "byteOffset" : 1224
        },
        {
            "buffer" : 0,
            "byteLength" : 384,
            "byteOffset" : 1608
        },
        {
            "buffer" : 0,
            "byteLength" : 256,
            "byteOffset" : 1992
        },
        {
            "buffer" : 0,
            "byteLength" : 180,
            "byteOffset" : 2248
        },
        {
            "buffer" : 0,
            "byteLength" : 48,
            "byteOffset" : 2428
        },
        {
            "buffer" : 0,
            "byteLength" : 48,
            "byteOffset" : 2476
        },
        {
            "buffer" : 0,
            "byteLength" : 32,
            "byteOffset" : 2524
        },
        {
            "buffer" : 0,
            "byteLength" : 12,
            "byteOffset" : 2556
        },
        {
            "buffer" : 0,
            "byteLength" : 48,
            "byteOffset" : 2568
        },
        {
            "buffer" : 0,
            "byteLength" : 48,
            "byteOffset" : 2616
        },
        {
            "buffer" : 0,
            "byteLength" : 32,
            "byteOffset" : 2664
        },
        {
            "buffer" : 0,
            "byteLength" : 48,
            "byteOffset" : 2696
        },
        {
            "buffer" : 0,
            "byteLength" : 48,
            "byteOffset" : 2744
        },
        {
            "buffer" : 0,
            "byteLength" : 32,
            "byteOffset" : 2792
        },
        {
            "buffer" : 0,
            "byteLength" : 48,
            "byteOffset" : 2824
        },
        {
            "buffer" : 0,
            "byteLength" : 48,
            "byteOffset" : 2872
        },
        {
            "buffer" : 0,
            "byteLength" : 32,
            "byteOffset" : 2920
        },
        {
            "buffer" : 0,
            "byteLength" : 48,
            "byteOffset" : 2952
        },
        {
            "buffer" : 0,
            "byteLength" : 48,
            "byteOffset" : 3000
        },
        {
            "buffer" : 0,
            "byteLength" : 32,
            "byteOffset" : 3048
        }
    ],
    "buffers" : [
        {
            "byteLength" : 3080,
            "uri" : "data:application/octet-stream;base64,"
        }
    ]
}
