{
    "asset" : {
        "generator" : "Khronos glTF Blender I/O v1.8.19",
        "version" : "2.0"
    },
    "scene" : 0,
    "scenes" : [
        {
            "name" : "Scene",
            "nodes" : [
                0,
                1,
                2,
                3,
                4,
                5,
                6,
                7
            ]
        }
    ],
    "nodes" : [
        {
            "mesh" : 0,
            "name" : "\u5186",
            "rotation" : [
                -0.5,
                0.5,
                -0.4999999701976776,
                0.5
            ],
            "scale" : [
                1,
                1,
                2.4883992671966553
            ],
            "translation" : [
                -0.48419174551963806,
                0,
                0.19997119903564453
            ]
        },
        {
            "mesh" : 1,
            "name" : "\u5186.001",
            "rotation" : [
                -0.49999991059303284,
                0.49999985098838806,
                0.5000001192092896,
                -0.5000001192092896
            ],
            "scale" : [
                1,
                1,
                2.4883992671966553
            ],
            "translation" : [
                -0.4841917157173157,
                0,
                0.8185946345329285
            ]
        },
        {
            "mesh" : 2,
            "name" : "\u5186.002",
            "rotation" : [
                -0.5,
                0.5,
                -0.4999999701976776,
                0.5
            ],
            "scale" : [
                0.6253154873847961,
                0.6253154873847961,
                0.6253154873847961
            ],
            "translation" : [
                -0.3546270430088043,
                2.397413969039917,
                0.19997119903564453
            ]
        },
        {
            "mesh" : 3,
            "name" : "\u5e73\u9762",
            "rotation" : [
                -0.5,
                0.5,
                -0.4999999701976776,
                0.5
            ],
            "scale" : [
                0.35904955863952637,
                0.7897558212280273,
                1.112634301185608
            ],
            "translation" : [
                3.7146544456481934,
                3.8785653114318848,
                0.19997096061706543
            ]
        },
        {
            "mesh" : 4,
            "name" : "\u5e73\u9762.001",
            "rotation" : [
                -0.5,
                0.5,
                -0.4999999701976776,
                0.5
            ],
            "scale" : [
                0.5513135194778442,
                1,
                1.4088332653045654
            ],
            "translation" : [
                -2.52547550201416,
                2.7698729038238525,
                0.19997119903564453
            ]
        },
        {
            "mesh" : 5,
            "name" : "\u5e73\u9762.002",
            "rotation" : [
                -0.5,
                0.5,
                -0.4999999701976776,
                0.5
            ],
            "scale" : [
                0.4134482145309448,
                0.9094096422195435,
                1.2812066078186035
            ],
            "translation" : [
                1.7590277194976807,
                4.354880332946777,
                0.19997107982635498
            ]
        },
        {
            "mesh" : 6,
            "name" : "\u5e73\u9762.003",
            "rotation" : [
                -0.5,
                0.5,
                -0.4999999701976776,
                0.5
            ],
            "scale" : [
                -0.3487057685852051,
                0.7238867282867432,
                1.0198357105255127
            ],
            "translation" : [
                2.3786816596984863,
                2.864380121231079,
                0.19997119903564453
            ]
        },
        {
            "mesh" : 7,
            "name" : "\u5e73\u9762.004",
            "rotation" : [
                -0.5,
                0.5,
                -0.4999999701976776,
                0.5
            ],
            "scale" : [
                -0.3487057685852051,
                0.7238867282867432,
                1.0198357105255127
            ],
            "translation" : [
                -4.622500896453857,
                4.526127338409424,
                0.19997119903564453
            ]
        }
    ],
    "meshes" : [
        {
            "name" : "\u5186",
            "primitives" : [
                {
                    "attributes" : {
                        "POSITION" : 0,
                        "NORMAL" : 1,
                        "TEXCOORD_0" : 2
                    },
                    "indices" : 3
                }
            ]
        },
        {
            "name" : "\u5186.001",
            "primitives" : [
                {
                    "attributes" : {
                        "POSITION" : 4,
                        "NORMAL" : 5,
                        "TEXCOORD_0" : 6
                    },
                    "indices" : 7
                }
            ]
        },
        {
            "name" : "\u5186.002",
            "primitives" : [
                {
                    "attributes" : {
                        "POSITION" : 8,
                        "NORMAL" : 9,
                        "TEXCOORD_0" : 10
                    },
                    "indices" : 11
                }
            ]
        },
        {
            "name" : "\u5e73\u9762",
            "primitives" : [
                {
                    "attributes" : {
                        "POSITION" : 12,
                        "NORMAL" : 13,
                        "TEXCOORD_0" : 14
                    },
                    "indices" : 15
                }
            ]
        },
        {
            "name" : "\u5e73\u9762.001",
            "primitives" : [
                {
                    "attributes" : {
                        "POSITION" : 16,
                        "NORMAL" : 17,
                        "TEXCOORD_0" : 18
                    },
                    "indices" : 19
                }
            ]
        },
        {
            "name" : "\u5e73\u9762.002",
            "primitives" : [
                {
                    "attributes" : {
                        "POSITION" : 20,
                        "NORMAL" : 21,
                        "TEXCOORD_0" : 22
                    },
                    "indices" : 23
                }
            ]
        },
        {
            "name" : "\u5e73\u9762.003",
            "primitives" : [
                {
                    "attributes" : {
                        "POSITION" : 24,
                        "NORMAL" : 25,
                        "TEXCOORD_0" : 26
                    },
                    "indices" : 19
                }
            ]
        },
        {
            "name" : "\u5e73\u9762.004",
            "primitives" : [
                {
                    "attributes" : {
                        "POSITION" : 27,
                        "NORMAL" : 28,
                        "TEXCOORD_0" : 29
                    },
                    "indices" : 23
                }
            ]
        }
    ],
    "accessors" : [
        {
            "bufferView" : 0,
            "componentType" : 5126,
            "count" : 86,
            "max" : [
                8.742277657347586e-08,
                1.1822975487518761e-08,
                1.6236385107040405
            ],
            "min" : [
                -1.156599998474121,
                -0.16538722813129425,
                -2.355746030807495
            ],
            "type" : "VEC3"
        },
        {
            "bufferView" : 1,
            "componentType" : 5126,
            "count" : 86,
            "type" : "VEC3"
        },
        {
            "bufferView" : 2,
            "componentType" : 5126,
            "count" : 86,
            "type" : "VEC2"
        },
        {
            "bufferView" : 3,
            "componentType" : 5123,
            "count" : 144,
            "type" : "SCALAR"
        },
        {
            "bufferView" : 4,
            "componentType" : 5126,
            "count" : 86,
            "max" : [
                8.742277657347586e-08,
                0.16538715362548828,
                1.5285580158233643
            ],
            "min" : [
                -1.4707642793655396,
                -7.530091750140855e-08,
                -2.355746030807495
            ],
            "type" : "VEC3"
        },
        {
            "bufferView" : 5,
            "componentType" : 5126,
            "count" : 86,
            "type" : "VEC3"
        },
        {
            "bufferView" : 6,
            "componentType" : 5126,
            "count" : 86,
            "type" : "VEC2"
        },
        {
            "bufferView" : 7,
            "componentType" : 5123,
            "count" : 144,
            "type" : "SCALAR"
        },
        {
            "bufferView" : 8,
            "componentType" : 5126,
            "count" : 192,
            "max" : [
                -0.505303144454956,
                1.1364723206952476e-07,
                1
            ],
            "min" : [
                -2.505303144454956,
                -0.26448580622673035,
                -1
            ],
            "type" : "VEC3"
        },
        {
            "bufferView" : 9,
            "componentType" : 5126,
            "count" : 192,
            "type" : "VEC3"
        },
        {
            "bufferView" : 10,
            "componentType" : 5126,
            "count" : 192,
            "type" : "VEC2"
        },
        {
            "bufferView" : 11,
            "componentType" : 5123,
            "count" : 372,
            "type" : "SCALAR"
        },
        {
            "bufferView" : 12,
            "componentType" : 5126,
            "count" : 24,
            "max" : [
                1,
                0,
                1
            ],
            "min" : [
                -1,
                -0.20941555500030518,
                -1
            ],
            "type" : "VEC3"
        },
        {
            "bufferView" : 13,
            "componentType" : 5126,
            "count" : 24,
            "type" : "VEC3"
        },
        {
            "bufferView" : 14,
            "componentType" : 5126,
            "count" : 24,
            "type" : "VEC2"
        },
        {
            "bufferView" : 15,
            "componentType" : 5123,
            "count" : 36,
            "type" : "SCALAR"
        },
        {
            "bufferView" : 16,
            "componentType" : 5126,
            "count" : 24,
            "max" : [
                1,
                0,
                1
            ],
            "min" : [
                -1,
                -0.1653871387243271,
                -1
            ],
            "type" : "VEC3"
        },
        {
            "bufferView" : 17,
            "componentType" : 5126,
            "count" : 24,
            "type" : "VEC3"
        },
        {
            "bufferView" : 18,
            "componentType" : 5126,
            "count" : 24,
            "type" : "VEC2"
        },
        {
            "bufferView" : 19,
            "componentType" : 5123,
            "count" : 36,
            "type" : "SCALAR"
        },
        {
            "bufferView" : 20,
            "componentType" : 5126,
            "count" : 24,
            "max" : [
                1,
                0,
                1
            ],
            "min" : [
                -1,
                -0.18186208605766296,
                -1
            ],
            "type" : "VEC3"
        },
        {
            "bufferView" : 21,
            "componentType" : 5126,
            "count" : 24,
            "type" : "VEC3"
        },
        {
            "bufferView" : 22,
            "componentType" : 5126,
            "count" : 24,
            "type" : "VEC2"
        },
        {
            "bufferView" : 23,
            "componentType" : 5123,
            "count" : 36,
            "type" : "SCALAR"
        },
        {
            "bufferView" : 24,
            "componentType" : 5126,
            "count" : 24,
            "max" : [
                1,
                0,
                1
            ],
            "min" : [
                -1,
                -0.2284710556268692,
                -1
            ],
            "type" : "VEC3"
        },
        {
            "bufferView" : 25,
            "componentType" : 5126,
            "count" : 24,
            "type" : "VEC3"
        },
        {
            "bufferView" : 26,
            "componentType" : 5126,
            "count" : 24,
            "type" : "VEC2"
        },
        {
            "bufferView" : 27,
            "componentType" : 5126,
            "count" : 24,
            "max" : [
                1,
                0,
                1
            ],
            "min" : [
                -1,
                -0.2284710556268692,
                -1
            ],
            "type" : "VEC3"
        },
        {
            "bufferView" : 28,
            "componentType" : 5126,
            "count" : 24,
            "type" : "VEC3"
        },
        {
            "bufferView" : 29,
            "componentType" : 5126,
            "count" : 24,
            "type" : "VEC2"
        }
    ],
    "bufferViews" : [
        {
            "buffer" : 0,
            "byteLength" : 1032,
            "byteOffset" : 0
        },
        {
            "buffer" : 0,
            "byteLength" : 1032,
            "byteOffset" : 1032
        },
        {
            "buffer" : 0,
            "byteLength" : 688,
            "byteOffset" : 2064
        },
        {
            "buffer" : 0,
            "byteLength" : 288,
            "byteOffset" : 2752
        },
        {
            "buffer" : 0,
            "byteLength" : 1032,
            "byteOffset" : 3040
        },
        {
            "buffer" : 0,
            "byteLength" : 1032,
            "byteOffset" : 4072
        },
        {
            "buffer" : 0,
            "byteLength" : 688,
            "byteOffset" : 5104
        },
        {
            "buffer" : 0,
            "byteLength" : 288,
            "byteOffset" : 5792
        },
        {
            "buffer" : 0,
            "byteLength" : 2304,
            "byteOffset" : 6080
        },
        {
            "buffer" : 0,
            "byteLength" : 2304,
            "byteOffset" : 8384
        },
        {
            "buffer" : 0,
            "byteLength" : 1536,
            "byteOffset" : 10688
        },
        {
            "buffer" : 0,
            "byteLength" : 744,
            "byteOffset" : 12224
        },
        {
            "buffer" : 0,
            "byteLength" : 288,
            "byteOffset" : 12968
        },
        {
            "buffer" : 0,
            "byteLength" : 288,
            "byteOffset" : 13256
        },
        {
            "buffer" : 0,
            "byteLength" : 192,
            "byteOffset" : 13544
        },
        {
            "buffer" : 0,
            "byteLength" : 72,
            "byteOffset" : 13736
        },
        {
            "buffer" : 0,
            "byteLength" : 288,
            "byteOffset" : 13808
        },
        {
            "buffer" : 0,
            "byteLength" : 288,
            "byteOffset" : 14096
        },
        {
            "buffer" : 0,
            "byteLength" : 192,
            "byteOffset" : 14384
        },
        {
            "buffer" : 0,
            "byteLength" : 72,
            "byteOffset" : 14576
        },
        {
            "buffer" : 0,
            "byteLength" : 288,
            "byteOffset" : 14648
        },
        {
            "buffer" : 0,
            "byteLength" : 288,
            "byteOffset" : 14936
        },
        {
            "buffer" : 0,
            "byteLength" : 192,
            "byteOffset" : 15224
        },
        {
            "buffer" : 0,
            "byteLength" : 72,
            "byteOffset" : 15416
        },
        {
            "buffer" : 0,
            "byteLength" : 288,
            "byteOffset" : 15488
        },
        {
            "buffer" : 0,
            "byteLength" : 288,
            "byteOffset" : 15776
        },
        {
            "buffer" : 0,
            "byteLength" : 192,
            "byteOffset" : 16064
        },
        {
            "buffer" : 0,
            "byteLength" : 288,
            "byteOffset" : 16256
        },
        {
            "buffer" : 0,
            "byteLength" : 288,
            "byteOffset" : 16544
        },
        {
            "buffer" : 0,
            "byteLength" : 192,
            "byteOffset" : 16832
        }
    ],
    "buffers" : [
        {
            "byteLength" : 17024,
            "uri" : "data:application/octet-stream;base64,"
        }
    ]
}
