{
    "asset" : {
        "generator" : "Khronos glTF Blender I/O v1.8.19",
        "version" : "2.0"
    },
    "scene" : 0,
    "scenes" : [
        {
            "name" : "Scene",
            "nodes" : [
                0,
                1
            ]
        }
    ],
    "nodes" : [
        {
            "mesh" : 0,
            "name" : "\u30e1\u30bf\u30dc\u30fc\u30eb.041",
            "rotation" : [
                0,
                0.3646821081638336,
                0,
                0.9311320781707764
            ],
            "scale" : [
                1.1215717792510986,
                1,
                -1.4273841381072998
            ],
            "translation" : [
                -0.4899240732192993,
                0,
                -3.0386297702789307
            ]
        },
        {
            "name" : "\u30e1\u30bf\u30dc\u30fc\u30eb",
            "scale" : [
                0.332026869058609,
                0.332026869058609,
                0.332026869058609
            ],
            "translation" : [
                0,
                0,
                15.721819877624512
            ]
        }
    ],
    "materials" : [
        {
            "doubleSided" : true,
            "name" : "\u30de\u30c6\u30ea\u30a2\u30eb.001",
            "pbrMetallicRoughness" : {
                "baseColorTexture" : {
                    "index" : 0
                },
                "metallicFactor" : 0,
                "roughnessFactor" : 0.5
            }
        }
    ],
    "meshes" : [
        {
            "extras" : {
                "targetNames" : [
                    "\u30d1\u30fc\u30c6\u30a3\u30af\u30eb\u30b7\u30b9\u30c6\u30e0",
                    "\u30d1\u30fc\u30c6\u30a3\u30af\u30eb\u30b7\u30b9\u30c6\u30e0.001"
                ]
            },
            "name" : "Mesh",
            "primitives" : [
                {
                    "attributes" : {
                        "POSITION" : 0,
                        "NORMAL" : 1
                    },
                    "indices" : 2,
                    "material" : 0,
                    "targets" : [
                        {
                            "POSITION" : 3,
                            "NORMAL" : 4
                        },
                        {
                            "POSITION" : 5,
                            "NORMAL" : 6
                        }
                    ]
                }
            ],
            "weights" : [
                0,
                0
            ]
        }
    ],
    "textures" : [
        {
            "sampler" : 0,
            "source" : 0
        }
    ],
    "images" : [
        {
            "bufferView" : 3,
            "mimeType" : "image/png",
            "name" : "\u30bf\u30a4\u30c8\u30eb\u306a\u3057"
        }
    ],
    "accessors" : [
        {
            "bufferView" : 0,
            "componentType" : 5126,
            "count" : 2182,
            "max" : [
                1.7865524291992188,
                8.23354721069336,
                1.6163424253463745
            ],
            "min" : [
                -7.425158977508545,
                -1.6403403282165527,
                -7.0754804611206055
            ],
            "type" : "VEC3"
        },
        {
            "bufferView" : 1,
            "componentType" : 5126,
            "count" : 2182,
            "type" : "VEC3"
        },
        {
            "bufferView" : 2,
            "componentType" : 5123,
            "count" : 13080,
            "type" : "SCALAR"
        },
        {
            "bufferView" : 4,
            "componentType" : 5126,
            "count" : 2182,
            "max" : [
                0,
                0,
                0
            ],
            "min" : [
                0,
                0,
                0
            ],
            "type" : "VEC3"
        },
        {
            "bufferView" : 5,
            "componentType" : 5126,
            "count" : 2182,
            "type" : "VEC3"
        },
        {
            "bufferView" : 6,
            "componentType" : 5126,
            "count" : 2182,
            "max" : [
                0,
                0,
                0
            ],
            "min" : [
                0,
                0,
                0
            ],
            "type" : "VEC3"
        },
        {
            "bufferView" : 7,
            "componentType" : 5126,
            "count" : 2182,
            "type" : "VEC3"
        }
    ],
    "bufferViews" : [
        {
            "buffer" : 0,
            "byteLength" : 26184,
            "byteOffset" : 0
        },
        {
            "buffer" : 0,
            "byteLength" : 26184,
            "byteOffset" : 26184
        },
        {
            "buffer" : 0,
            "byteLength" : 26160,
            "byteOffset" : 52368
        },
        {
            "buffer" : 0,
            "byteLength" : 150567,
            "byteOffset" : 78528
        },
        {
            "buffer" : 0,
            "byteLength" : 26184,
            "byteOffset" : 229096
        },
        {
            "buffer" : 0,
            "byteLength" : 26184,
            "byteOffset" : 255280
        },
        {
            "buffer" : 0,
            "byteLength" : 26184,
            "byteOffset" : 281464
        },
        {
            "buffer" : 0,
            "byteLength" : 26184,
            "byteOffset" : 307648
        }
    ],
    "samplers" : [
        {
            "magFilter" : 9729,
            "minFilter" : 9987
        }
    ],
    "buffers" : [
        {
            "byteLength" : 333832,
            "uri" : "data:application/octet-stream;base64,"
        }
    ]
}
